<?xml version="1.0" encoding="UTF-8"?>
<svg version="1.1" xmlns="http://www.w3.org/2000/svg" width="1200" height="1200">
<path d="M0 0 C396 0 792 0 1200 0 C1200 396 1200 792 1200 1200 C804 1200 408 1200 0 1200 C0 804 0 408 0 0 Z " fill="#FEFEFE" transform="translate(0,0)"/>
<path d="M0 0 C3.52253392 0.01844387 7.04480517 0.02050728 10.56738281 0.02026367 C26.18443073 0.04395678 41.61561847 0.45326624 57.12207031 2.45581055 C58.11722656 2.58294434 59.11238281 2.71007812 60.13769531 2.84106445 C121.66614503 10.95730191 178.52855845 28.54432547 233.99707031 56.20581055 C234.84382324 56.62717285 235.69057617 57.04853516 236.56298828 57.48266602 C275.53651027 77.04155306 311.00242498 103.73705827 342.99707031 133.20581055 C343.62516602 133.78347168 344.25326172 134.36113281 344.90039062 134.95629883 C353.17149535 142.58452187 361.22178802 150.2776328 368.71582031 158.67456055 C370.62363975 160.79145609 372.57159181 162.7923949 374.62207031 164.76831055 C378.24742637 168.33353037 381.38134133 172.25339403 384.56347656 176.21362305 C386.61159578 178.73185631 388.70749222 181.19527011 390.83618164 183.64526367 C422.9280816 220.78656813 449.14795425 265.63631984 467.20458984 311.21948242 C467.95638898 313.10384404 468.73954849 314.97560507 469.52441406 316.84643555 C488.3278494 362.13428513 499.93610111 412.22163196 502.99707031 461.20581055 C503.08102051 462.46796387 503.1649707 463.73011719 503.25146484 465.03051758 C507.00246404 524.21108349 501.95880465 585.3484422 483.69140625 642.01049805 C482.96787811 644.2981088 482.29633423 646.59741135 481.62597656 648.90112305 C464.97397983 704.5646881 436.54781542 757.45649248 400.99707031 803.20581055 C400.0878948 804.39176218 399.17903849 805.57795859 398.27050781 806.7644043 C384.31739669 824.87178283 368.74146714 841.52419383 352.62207031 857.70581055 C351.7898999 858.54265381 350.95772949 859.37949707 350.1003418 860.24169922 C345.7688683 864.56190074 341.36539765 868.72939985 336.72607422 872.7175293 C334.56150365 874.58073492 332.46996536 876.51811839 330.37207031 878.45581055 C324.73882901 883.53694244 318.8031158 888.18512309 312.79931641 892.81518555 C311.00334813 894.20096655 309.21269162 895.593377 307.42285156 896.98706055 C292.96290454 908.20581055 292.96290454 908.20581055 289.99707031 908.20581055 C288.11949332 905.7625141 286.35876495 903.30960042 284.62207031 900.76831055 C283.53110022 899.19657397 282.43994946 897.62496277 281.34863281 896.0534668 C280.51187012 894.84134521 280.51187012 894.84134521 279.65820312 893.60473633 C277.13002276 889.95366339 274.56323846 886.33023168 271.99707031 882.70581055 C270.9955182 881.28801839 269.99421694 879.87004899 268.99316406 878.4519043 C268.49800293 877.75049316 268.0028418 877.04908203 267.49267578 876.32641602 C266.00412574 874.21581438 264.51788277 872.10360617 263.03222656 869.9909668 C257.88171735 862.67217875 252.69125551 855.38628566 247.43457031 848.14331055 C242.91030621 841.90748798 238.4979306 835.60802113 234.15869141 829.24243164 C230.70453145 824.19270159 227.15222524 819.22029101 223.55957031 814.26831055 C214.94130057 802.38921159 206.48592255 790.40653984 198.20703125 778.28857422 C194.231748 772.49494597 190.11120674 766.81245805 185.97607422 761.13232422 C182.02469096 755.68328626 178.20756017 750.15449424 174.43457031 744.58081055 C169.92548034 737.9253721 165.24157827 731.44886441 160.37573242 725.05078125 C155.98137618 719.24889742 151.86583611 713.27932626 147.77050781 707.2644043 C140.26821938 696.25057632 132.4631499 685.44776842 124.64428711 674.65771484 C120.78849239 669.32708299 117.01900994 663.9463758 113.29003906 658.52612305 C106.4762782 648.63430803 99.48890996 638.86445821 92.43457031 629.14331055 C87.90940796 622.90615966 83.4948874 616.60617583 79.15649414 610.23803711 C75.72998469 605.22640426 72.19484125 600.30148307 68.62207031 595.39331055 C64.095337 589.17325362 59.69138239 582.88408511 55.37207031 576.51831055 C51.11265599 570.24347839 46.75206465 564.07080338 42.2331543 557.98071289 C37.74728919 551.91593332 33.43683703 545.73233183 29.12280273 539.54467773 C25.73257084 534.68300234 22.32566582 529.83518596 18.87207031 525.01831055 C13.72043224 517.8315486 8.62361709 510.60661612 3.52929688 503.37915039 C0.52019858 499.11098706 -2.49215152 494.84511762 -5.50463867 490.5793457 C-7.9953331 487.05197511 -10.48387689 483.52312828 -12.96777344 479.9909668 C-18.07525013 472.73346003 -23.22333558 465.5099823 -28.44042969 458.33081055 C-33.57997483 451.25370784 -38.55019575 444.07319332 -43.46606445 436.83935547 C-46.97595525 431.68166896 -50.56553123 426.60487036 -54.26464844 421.58081055 C-55.94101346 419.2904062 -57.57179535 416.97477413 -59.19042969 414.64331055 C-61.90230434 410.74460639 -64.67491998 406.89432933 -67.46728516 403.05322266 C-72.6154032 395.96983002 -77.65638448 388.83213786 -82.56542969 381.58081055 C-87.07455134 374.92539029 -91.7584199 368.44886682 -96.62426758 362.05078125 C-101.01294064 356.25640093 -105.12353753 350.29477887 -109.21386719 344.2878418 C-113.59878354 337.85070979 -118.09112698 331.49040066 -122.62011719 325.15405273 C-123.89962307 323.35135906 -125.15642549 321.53495109 -126.40917969 319.71362305 C-132.68376332 310.85408771 -139.62087662 304.35198695 -150.37011719 301.6394043 C-160.93150333 299.90006622 -170.55568272 301.23038464 -179.69042969 306.89331055 C-188.65609766 313.34035447 -193.76372271 321.38314177 -196.00292969 332.20581055 C-196.09555955 334.2330055 -196.13202964 336.26301335 -196.13435745 338.29232216 C-196.1381986 339.54814177 -196.14203974 340.80396138 -196.14599729 342.09783614 C-196.14521704 343.49406733 -196.14433826 344.89029847 -196.14337158 346.28652954 C-196.14595523 347.76778375 -196.14896839 349.24903727 -196.15237498 350.73028982 C-196.16044842 354.80651635 -196.16223475 358.88272528 -196.16297245 362.95895886 C-196.16482243 367.35312705 -196.17236955 371.74728608 -196.17910767 376.14144897 C-196.1926945 385.75314601 -196.1987164 395.36483887 -196.20311832 404.9765439 C-196.20588045 410.97818242 -196.21011779 416.97981933 -196.2146225 422.98145676 C-196.22681619 439.59787965 -196.23711494 456.21430126 -196.24049759 472.83072853 C-196.24071716 473.89441248 -196.24093672 474.95809642 -196.24116294 476.05401322 C-196.24138122 477.1202475 -196.2415995 478.18648178 -196.24182439 479.28502619 C-196.24226785 481.4456327 -196.24271442 483.6062392 -196.24316406 485.7668457 C-196.24338549 486.83858191 -196.24360692 487.91031812 -196.24383506 489.01453118 C-196.24778222 506.37663069 -196.26523331 523.73868821 -196.28852358 541.1007715 C-196.3122418 558.9257637 -196.32469967 576.75073484 -196.32586551 594.57574308 C-196.32678206 604.58393158 -196.33252941 614.59206538 -196.35068512 624.6002388 C-196.36609251 633.12350411 -196.37120283 641.64669782 -196.36294702 650.1699744 C-196.35904263 654.51751707 -196.35995974 658.86491559 -196.37400436 663.21244049 C-196.38675604 667.19623208 -196.38553472 671.17977139 -196.37341365 675.1635627 C-196.37145883 676.60102984 -196.37452515 678.03851493 -196.38325801 679.47595687 C-196.45872872 692.74376409 -194.31448198 704.13842267 -185.15136719 714.2487793 C-176.79622583 722.0546783 -167.53397695 724.53011889 -156.26074219 724.3581543 C-146.64532254 723.70936301 -137.49602605 719.33757212 -131.00292969 712.20581055 C-124.71243467 703.45696115 -122.70191983 695.88561668 -122.72445679 685.29066467 C-122.71866439 684.30871468 -122.71287198 683.3267647 -122.70690405 682.31505865 C-122.68993657 679.03389878 -122.68703032 675.75287984 -122.68408203 672.47167969 C-122.67478163 670.11599382 -122.66461279 667.76031124 -122.65364075 665.40463257 C-122.62633946 659.01476199 -122.61119087 652.62491346 -122.59821272 646.2349999 C-122.58416668 640.23209513 -122.56103213 634.22922829 -122.53794236 628.2263531 C-122.49251582 616.33955993 -122.45588394 604.45275667 -122.42480469 592.56591797 C-122.39460218 581.02162913 -122.36024411 569.47736494 -122.3203125 557.93310547 C-122.31785095 557.22105259 -122.3153894 556.50899971 -122.31285326 555.77536947 C-122.30047833 552.20307065 -122.28802186 548.63077211 -122.27552485 545.05847371 C-122.17201903 515.44095451 -122.08294226 485.82340276 -122.00292969 456.20581055 C-119.03885436 459.13469289 -116.30920052 461.9312729 -113.94433594 465.3659668 C-113.40083496 466.14939453 -112.85733398 466.93282227 -112.29736328 467.73999023 C-111.7258252 468.57433594 -111.15428711 469.40868164 -110.56542969 470.26831055 C-109.31937522 472.06651485 -108.07328032 473.86469114 -106.82714844 475.6628418 C-106.19341309 476.58145996 -105.55967773 477.50007813 -104.90673828 478.4465332 C-101.90902292 482.79125993 -98.89784709 487.12649063 -95.87792969 491.45581055 C-95.30179932 492.28193848 -94.72566895 493.10806641 -94.13208008 493.95922852 C-89.87317434 500.03548364 -85.4657404 505.98510426 -80.98339844 511.89770508 C-78.02244364 515.8125447 -75.209368 519.77736779 -72.53808594 523.8972168 C-70.53674438 526.90686784 -68.42646031 529.83526781 -66.31542969 532.76831055 C-62.70642129 537.7865249 -59.17347633 542.84944353 -55.69042969 547.95581055 C-51.76035465 553.71163549 -47.72924909 559.38336371 -43.62792969 565.01831055 C-39.10123474 571.23839695 -34.69724289 577.52753432 -30.37792969 583.89331055 C-26.11701639 590.17035095 -21.75401532 596.34448174 -17.23461914 602.4375 C-11.56895706 610.09944899 -6.15976816 617.94183479 -0.7109375 625.75854492 C1.86965356 629.45606419 4.461339 633.14566973 7.05957031 636.83081055 C7.54490234 637.51916992 8.03023437 638.2075293 8.53027344 638.91674805 C12.12458321 644.00114916 15.77476062 649.04344739 19.43457031 654.08081055 C23.93791598 660.28124476 28.31815174 666.55294414 32.62207031 672.89331055 C36.88368767 679.17108843 41.24632178 685.3467661 45.76757812 691.43969727 C50.18286003 697.40873941 54.42060995 703.49721927 58.66259766 709.59008789 C62.5701116 715.19309439 66.53995772 720.74529954 70.55957031 726.26831055 C75.02303494 732.40523566 79.36030152 738.61473309 83.62207031 744.89331055 C87.88310821 751.17026889 92.24598121 757.34447707 96.76538086 763.4375 C102.43104294 771.09944899 107.84023184 778.94183479 113.2890625 786.75854492 C115.86965356 790.45606419 118.461339 794.14566973 121.05957031 797.83081055 C121.78756836 798.86334961 121.78756836 798.86334961 122.53027344 799.91674805 C126.12458321 805.00114916 129.77476062 810.04344739 133.43457031 815.08081055 C138.51064103 822.06980158 143.41263011 829.16345835 148.26245117 836.31079102 C151.57998753 841.18318781 154.98117761 845.97484785 158.49707031 850.70581055 C162.59463559 856.21946812 166.51496376 861.83397224 170.37207031 867.51831055 C175.19622469 874.62540673 180.14114456 881.62855783 185.19189453 888.57617188 C188.83603817 893.59029845 192.4333124 898.63426375 195.99707031 903.70581055 C200.13645124 909.59567935 204.33008084 915.44284624 208.55957031 921.26831055 C214.51926888 929.48160134 220.2920811 937.81410297 225.99707031 946.20581055 C222.89455481 949.54241158 219.26384275 951.23776212 215.18457031 953.14331055 C214.36126221 953.5288208 213.5379541 953.91433105 212.68969727 954.31152344 C190.39198393 964.56374071 167.38352022 972.83861255 143.99707031 980.20581055 C143.0723291 980.50181152 142.14758789 980.7978125 141.19482422 981.1027832 C124.76359659 986.31590361 107.85221227 989.60357441 90.94110107 992.83410645 C89.1780417 993.17120831 87.41587136 993.51295157 85.65380859 993.85522461 C52.49936011 1000.17494048 18.64051395 1000.8628547 -15.00292969 1000.20581055 C-16.17823242 1000.18502441 -17.35353516 1000.16423828 -18.56445312 1000.14282227 C-65.19124053 999.16691276 -112.0247858 989.46017141 -156.00292969 974.20581055 C-156.96553711 973.87613281 -157.92814453 973.54645508 -158.91992188 973.20678711 C-212.3312626 954.81805219 -261.77037936 927.2673213 -306.00292969 892.20581055 C-306.59509277 891.73820313 -307.18725586 891.2705957 -307.79736328 890.78881836 C-313.52705418 886.24512604 -319.02436104 881.47518504 -324.42089844 876.54174805 C-326.52278323 874.64019418 -328.6451304 872.77203017 -330.78417969 870.9128418 C-341.64303726 861.42863563 -352.04568816 851.52271664 -361.62109375 840.74047852 C-363.68926446 838.44356666 -365.8130388 836.20000708 -367.93139648 833.94946289 C-373.9117935 827.58265082 -379.59454126 821.07097456 -385.00292969 814.20581055 C-385.50373047 813.57755371 -386.00453125 812.94929687 -386.52050781 812.30200195 C-425.69825921 763.12166645 -454.63880976 707.9141424 -474.00292969 648.20581055 C-474.30279785 647.29331543 -474.60266602 646.38082031 -474.91162109 645.44067383 C-479.64188757 630.93804988 -482.90485639 616.13123426 -486.00292969 601.20581055 C-486.19628906 600.28155273 -486.38964844 599.35729492 -486.58886719 598.4050293 C-496.88367988 548.64676797 -498.69464846 497.75721853 -494.00292969 447.20581055 C-493.91172852 446.22032227 -493.82052734 445.23483398 -493.7265625 444.21948242 C-488.51923906 391.63465129 -472.42740519 340.28751046 -451.00292969 292.20581055 C-450.65149902 291.4149707 -450.30006836 290.62413086 -449.93798828 289.80932617 C-444.22279761 277.0639452 -437.54614987 264.94324296 -430.54150391 252.86547852 C-429.17210714 250.49826043 -427.82041167 248.12219188 -426.47558594 245.7409668 C-409.81272182 216.48884225 -388.79483585 189.42422378 -366.14355469 164.57299805 C-364.65617578 162.92819583 -363.18871399 161.26525103 -361.73730469 159.58862305 C-361.02058594 158.76104492 -360.30386719 157.9334668 -359.56542969 157.08081055 C-358.92734375 156.33573242 -358.28925781 155.5906543 -357.63183594 154.82299805 C-356.00292969 153.20581055 -356.00292969 153.20581055 -354.00292969 153.20581055 C-353.75800781 152.63475586 -353.51308594 152.06370117 -353.26074219 151.4753418 C-349.67900057 145.0126341 -342.91893902 140.04248188 -337.35449219 135.27612305 C-334.85861002 133.0787517 -332.43479863 130.81645004 -330.01123047 128.54003906 C-320.09250111 119.22909454 -309.60219763 110.77621793 -298.77148438 102.5534668 C-296.94888581 101.16462858 -295.13603068 99.76367176 -293.32324219 98.36206055 C-276.16082763 85.18241099 -257.75728716 73.95919635 -239.00292969 63.20581055 C-237.69316162 62.45001709 -237.69316162 62.45001709 -236.35693359 61.67895508 C-220.73431466 52.71716527 -204.53400695 45.29755937 -188.00292969 38.20581055 C-187.10928711 37.81941406 -186.21564453 37.43301758 -185.29492188 37.03491211 C-150.57895396 22.14465604 -113.35020585 11.72452347 -76.00292969 6.20581055 C-73.74379195 5.85569948 -71.48467864 5.50543081 -69.22558594 5.1550293 C-66.83916686 4.79496458 -64.45245044 4.43686464 -62.06542969 4.08081055 C-61.01935547 3.92185303 -59.97328125 3.76289551 -58.89550781 3.59912109 C-39.31327409 0.79046083 -19.76708648 -0.10679664 0 0 Z " fill="#212121" transform="translate(596.0029296875,99.794189453125)"/>
<path d="M0 0 C6.78644467 5.27174586 10.85239072 12.5854703 13.22265625 20.76171875 C13.47105324 23.77035606 13.47105324 23.77035606 13.46875191 27.01293755 C13.472734 28.25452248 13.4767161 29.4961074 13.48081887 30.77531612 C13.47511353 32.14504183 13.46922235 33.51476677 13.46316528 34.88449097 C13.46403771 36.34572459 13.46578937 37.8069579 13.46834362 39.26818955 C13.47281391 43.27942915 13.46481782 47.29056187 13.45478749 51.30178785 C13.44615073 55.62892114 13.44907331 59.95604839 13.45059204 64.28318787 C13.45164075 71.77889306 13.44536562 79.27456343 13.43411636 86.77025986 C13.41786242 97.60777458 13.41265346 108.44527247 13.41014038 119.28279807 C13.40576311 136.86595044 13.39245315 154.44908426 13.37353516 172.03222656 C13.35517718 189.11262926 13.34102027 206.19302692 13.33251953 223.2734375 C13.33199408 224.3262706 13.33146864 225.3791037 13.33092727 226.46384083 C13.32831719 231.74559414 13.32578978 237.02734749 13.32330346 242.30910087 C13.30256998 286.12665301 13.26734357 329.94418492 13.22265625 373.76171875 C7.71091388 368.3041449 7.71091388 368.3041449 5.78515625 365.40625 C5.37209229 364.79338135 4.95902832 364.1805127 4.53344727 363.54907227 C4.10088623 362.89737061 3.6683252 362.24566895 3.22265625 361.57421875 C-0.82414122 355.58217958 -4.96333132 349.67282659 -9.21484375 343.82421875 C-14.97334934 335.89148798 -20.64590784 327.90195342 -26.28466797 319.88378906 C-28.82073725 316.27837294 -31.36112518 312.6760067 -33.90234375 309.07421875 C-34.40258057 308.36515381 -34.90281738 307.65608887 -35.41821289 306.92553711 C-38.0979005 303.13029963 -40.78243942 299.33877003 -43.49138165 295.56433749 C-44.68669791 293.88878306 -45.86469399 292.20090962 -47.04121399 290.51210403 C-48.85706439 287.95476236 -50.77735656 285.57188066 -52.84049988 283.21064377 C-62.92086687 271.19606634 -63.46515207 260.79621302 -63.203125 245.54785156 C-63.20629498 243.15266221 -63.21470389 240.75747501 -63.22790527 238.36231995 C-63.24830149 231.90504856 -63.19459489 225.45036189 -63.12579727 218.99350452 C-63.06591325 212.90227408 -63.07064658 206.81092792 -63.06829107 200.71945974 C-63.06156371 188.65186927 -62.99860672 176.58524735 -62.90234375 164.51806641 C-62.80925354 152.83992468 -62.75263002 141.1623965 -62.73828125 129.48388672 C-62.73739018 128.76388934 -62.73649911 128.04389197 -62.73558104 127.30207649 C-62.73381048 125.85135317 -62.73204238 124.40062984 -62.73027676 122.94990651 C-62.72895937 121.87615907 -62.72895937 121.87615907 -62.72761536 120.78071976 C-62.72675141 120.06655717 -62.72588747 119.35239458 -62.72499734 118.61659069 C-62.71015597 107.43977772 -62.66472821 96.26306197 -62.61509377 85.08635677 C-62.59743077 81.0528537 -62.5836459 77.0193596 -62.57260525 72.98583326 C-62.55311774 65.98679273 -62.51240988 58.98826793 -62.44929504 51.98948479 C-62.43130792 49.67289109 -62.41987339 47.35623528 -62.41566467 45.03957558 C-62.37702576 27.66020824 -61.76872121 14.08309137 -49.0859375 1.01953125 C-34.87292136 -12.23715666 -15.08771167 -10.51165846 0 0 Z " fill="#FDFDFD" transform="translate(785.77734375,383.23828125)"/>
<path d="M0 0 C0.98120464 3.05263664 0.98120464 4.94736336 0 8 C-0.66 8 -1.32 8 -2 8 C-2.33 8.66 -2.66 9.32 -3 10 C-6.17045938 11.24061454 -8.58238295 12 -12 12 C-10.75933437 10.3678622 -9.50708312 8.74452679 -8.25 7.125 C-7.20585937 5.76761719 -7.20585937 5.76761719 -6.140625 4.3828125 C-4.13433055 2.14952853 -2.75692659 1.08041718 0 0 Z " fill="#2B2B2B" transform="translate(214,285)"/>
<path d="M0 0 C0 3 0 3 -1 6 C-2.33333333 6.66666667 -3.66666667 7.33333333 -5 8 C-6.72836425 9.62960058 -8.35923795 11.28577099 -10 13 C-11.60146833 14.60686048 -13.205817 16.21085362 -14.8125 17.8125 C-15.60269531 18.60269531 -16.39289062 19.39289062 -17.20703125 20.20703125 C-17.79871094 20.79871094 -18.39039063 21.39039063 -19 22 C-19.66 21.67 -20.32 21.34 -21 21 C-14.07 14.07 -7.14 7.14 0 0 Z " fill="#E4E4E4" transform="translate(964,941)"/>
<path d="M0 0 C0.598125 0.33 1.19625 0.66 1.8125 1 C4.05386471 2.20787988 4.05386471 2.20787988 7 2 C8.32 2 9.64 2 11 2 C10.67 4.31 10.34 6.62 10 9 C9.34 8.67 8.68 8.34 8 8 C7.34 8.66 6.68 9.32 6 10 C4.99723227 8.52270825 3.99785546 7.04311423 3 5.5625 C2.443125 4.73878906 1.88625 3.91507812 1.3125 3.06640625 C0 1 0 1 0 0 Z " fill="#2A2A2A" transform="translate(468,416)"/>
<path d="M0 0 C-1 3 -1 3 -2.70703125 3.87890625 C-3.40183594 4.10449219 -4.09664062 4.33007812 -4.8125 4.5625 C-7.09942753 5.33842184 -9.15904018 6.08166928 -11.3125 7.1875 C-13 8 -13 8 -16 8 C-5.31225296 -1.77075099 -5.31225296 -1.77075099 0 0 Z " fill="#EBEBEB" transform="translate(751,378)"/>
<path d="M0 0 C1.32 0.33 2.64 0.66 4 1 C2.68 4.3 1.36 7.6 0 11 C-2 10 -2 10 -2.8125 7.75 C-3.04981941 4.2693153 -1.99176373 2.78846922 0 0 Z " fill="#2C2C2C" transform="translate(1052,803)"/>
<path d="M0 0 C3.19249477 2.96647745 5.4592987 6.04963636 7.75 9.75 C8.36359375 10.73484375 8.9771875 11.7196875 9.609375 12.734375 C10.29773438 13.85585938 10.29773438 13.85585938 11 15 C10.01 15 9.02 15 8 15 C8 14.01 8 13.02 8 12 C6.02 11.34 4.04 10.68 2 10 C2.33 8.35 2.66 6.7 3 5 C2.01 5 1.02 5 0 5 C0 3.35 0 1.7 0 0 Z " fill="#323232" transform="translate(628,773)"/>
<path d="M0 0 C3.68006822 3.38168431 5.9785845 6.42521756 8 11 C7.01 11.495 7.01 11.495 6 12 C5.34 11.01 4.68 10.02 4 9 C3.01 9 2.02 9 1 9 C-1.09230769 4.56923077 -1.09230769 4.56923077 -0.625 1.6875 C-0.41875 1.130625 -0.2125 0.57375 0 0 Z " fill="#2D2D2D" transform="translate(610,748)"/>
<path d="M0 0 C0.99 0 1.98 0 3 0 C4.82421875 2.40625 4.82421875 2.40625 6.6875 5.5 C7.31011719 6.5209375 7.93273437 7.541875 8.57421875 8.59375 C9.04472656 9.3878125 9.51523437 10.181875 10 11 C7 11 7 11 5.359375 9.57421875 C4.82828125 8.95160156 4.2971875 8.32898437 3.75 7.6875 C3.20859375 7.07261719 2.6671875 6.45773437 2.109375 5.82421875 C1.74328125 5.22222656 1.3771875 4.62023438 1 4 C1.33 3.01 1.66 2.02 2 1 C1.34 0.67 0.68 0.34 0 0 Z " fill="#323232" transform="translate(801,1020)"/>
<path d="M0 0 C2.0625 1.75 2.0625 1.75 4 4 C3.9375 6.1875 3.9375 6.1875 3 8 C2.01 8.33 1.02 8.66 0 9 C-1.98 5.535 -1.98 5.535 -4 2 C-2.68 2.33 -1.36 2.66 0 3 C0 2.01 0 1.02 0 0 Z " fill="#2C2C2C" transform="translate(842,937)"/>
<path d="M0 0 C3 0 3 0 5.125 1.6875 C7.16972964 4.20933322 7.64598897 5.81390075 8 9 C7.01 9.33 6.02 9.66 5 10 C4.15801693 8.90241493 3.32669329 7.79664683 2.5 6.6875 C2.0359375 6.07261719 1.571875 5.45773437 1.09375 4.82421875 C0 3 0 3 0 0 Z " fill="#2D2D2D" transform="translate(607,611)"/>
<path d="M0 0 C0.99 0.33 1.98 0.66 3 1 C3.73046875 2.84765625 3.73046875 2.84765625 4.1875 5.0625 C4.34605469 5.79597656 4.50460937 6.52945312 4.66796875 7.28515625 C4.83232422 8.13400391 4.83232422 8.13400391 5 9 C4.01 9.66 3.02 10.32 2 11 C-1 5.375 -1 5.375 -1 2 C-0.67 2 -0.34 2 0 2 C0 1.34 0 0.68 0 0 Z " fill="#2C2C2C" transform="translate(1075,451)"/>
<path d="M0 0 C5.78461538 3.44615385 5.78461538 3.44615385 6.875 6.25 C6.936875 7.11625 6.936875 7.11625 7 8 C6.01 8 5.02 8 4 8 C3.67 8.66 3.34 9.32 3 10 C1.5783681 6.6828589 0.60990891 3.55780196 0 0 Z " fill="#F1F1F1" transform="translate(298,998)"/>
<path d="M0 0 C1.31611677 0.95336021 2.62778961 1.91285774 3.9375 2.875 C4.66839844 3.40867187 5.39929688 3.94234375 6.15234375 4.4921875 C8 6 8 6 9 8 C6.65004146 8.83927091 5.26649114 9.06091226 2.8125 8.5 C1 7 1 7 0.25 3.375 C0.1675 2.26125 0.085 1.1475 0 0 Z " fill="#2E2E2E" transform="translate(407,811)"/>
<path d="M0 0 C0.66 0 1.32 0 2 0 C3.32 2.31 4.64 4.62 6 7 C5.34 7.66 4.68 8.32 4 9 C3.34 8.34 2.68 7.68 2 7 C1.01 7.495 1.01 7.495 0 8 C0 5.33333333 0 2.66666667 0 0 Z " fill="#2C2C2C" transform="translate(586,715)"/>
<path d="M0 0 C1.11375 0.3403125 1.11375 0.3403125 2.25 0.6875 C-0.27788007 3.48622437 -1.95411134 5.14523019 -5.75 5.6875 C-6.08 4.6975 -6.41 3.7075 -6.75 2.6875 C-4.29511132 0.41445492 -3.41240272 -0.38777304 0 0 Z " fill="#2C2C2C" transform="translate(891.75,1002.3125)"/>
<path d="M0 0 C0.66 1.32 1.32 2.64 2 4 C1.34 4 0.68 4 0 4 C0.33 5.32 0.66 6.64 1 8 C0.34 7.67 -0.32 7.34 -1 7 C-1 6.34 -1 5.68 -1 5 C-1.99 5.33 -2.98 5.66 -4 6 C-4.33 4.35 -4.66 2.7 -5 1 C-4.01 1 -3.02 1 -2 1 C-1.34 0.67 -0.68 0.34 0 0 Z " fill="#272727" transform="translate(883,992)"/>
<path d="M0 0 C4.39158329 1.4638611 4.87947433 3.97831338 7 8 C5.35 8.33 3.7 8.66 2 9 C1.855625 8.071875 1.71125 7.14375 1.5625 6.1875 C1.07899889 2.99274889 1.07899889 2.99274889 0 0 Z " fill="#EEEEEE" transform="translate(737,799)"/>
<path d="M0 0 C1.32 0 2.64 0 4 0 C4 0.99 4 1.98 4 3 C4.66 3 5.32 3 6 3 C6 4.32 6 5.64 6 7 C6.66 7 7.32 7 8 7 C7.67 8.32 7.34 9.64 7 11 C4.69 7.37 2.38 3.74 0 0 Z " fill="#2F2F2F" transform="translate(738,798)"/>
<path d="M0 0 C2.1875 -0.5 2.1875 -0.5 5 0 C7.01271839 2.48053942 8.51887086 5.17640062 10 8 C9.01 8 8.02 8 7 8 C5.66666667 6 4.33333333 4 3 2 C2.01 2 1.02 2 0 2 C0 1.34 0 0.68 0 0 Z " fill="#2B2B2B" transform="translate(708,892)"/>
<path d="M0 0 C0.99 0 1.98 0 3 0 C4.6875 2 4.6875 2 6 4 C5.67 4.66 5.34 5.32 5 6 C2 6 2 6 0.3125 4.5 C-0.120625 4.005 -0.55375 3.51 -1 3 C-0.67 2.01 -0.34 1.02 0 0 Z " fill="#2E2E2E" transform="translate(1050,390)"/>
<path d="M0 0 C0.598125 0.350625 1.19625 0.70125 1.8125 1.0625 C-0.80948774 3.21627564 -2.83154172 4.46322174 -6.1875 5.0625 C-5.8575 3.4125 -5.5275 1.7625 -5.1875 0.0625 C-2.1875 -0.9375 -2.1875 -0.9375 0 0 Z " fill="#313131" transform="translate(809.1875,1050.9375)"/>
<path d="M0 0 C1.65 1.65 3.3 3.3 5 5 C3.02 5.99 3.02 5.99 1 7 C0.67 6.01 0.34 5.02 0 4 C-0.99 3.67 -1.98 3.34 -3 3 C-2.01 2.01 -1.02 1.02 0 0 Z " fill="#2A2A2A" transform="translate(772,721)"/>
<path d="M0 0 C0.99 0.495 0.99 0.495 2 1 C2 1.99 2 2.98 2 4 C2.99 3.67 3.98 3.34 5 3 C5.99 4.485 5.99 4.485 7 6 C6.01 7.32 5.02 8.64 4 10 C3.32845067 8.71086513 2.66291141 7.41859796 2 6.125 C1.62875 5.40570313 1.2575 4.68640625 0.875 3.9453125 C0 2 0 2 0 0 Z " fill="#282828" transform="translate(489,443)"/>
<path d="M0 0 C-1.423125 0.680625 -1.423125 0.680625 -2.875 1.375 C-6.00313679 2.80238254 -6.00313679 2.80238254 -8 5 C-9.32 3.68 -10.64 2.36 -12 1 C-3.96428571 -1.27678571 -3.96428571 -1.27678571 0 0 Z " fill="#3E3E3E" transform="translate(492,113)"/>
<path d="M0 0 C0.99 0.33 1.98 0.66 3 1 C3 1.66 3 2.32 3 3 C2.34 3 1.68 3 1 3 C1.33 4.32 1.66 5.64 2 7 C1.01 7 0.02 7 -1 7 C-1.66 5.68 -2.32 4.36 -3 3 C-2.01 2.01 -1.02 1.02 0 0 Z " fill="#2E2E2E" transform="translate(724,771)"/>
<path d="M0 0 C0.99 0.66 1.98 1.32 3 2 C3 2.66 3 3.32 3 4 C2.34 4 1.68 4 1 4 C0.67 5.32 0.34 6.64 0 8 C-1.5625 6.1875 -1.5625 6.1875 -3 4 C-2.67 3.01 -2.34 2.02 -2 1 C-1.34 0.67 -0.68 0.34 0 0 Z " fill="#ECECEC" transform="translate(738,665)"/>
<path d="M0 0 C0.99 0.33 1.98 0.66 3 1 C2.38722388 3.96175123 1.74627478 5.38058783 0 8 C-0.66 7.67 -1.32 7.34 -2 7 C-1.34 4.69 -0.68 2.38 0 0 Z " fill="#323232" transform="translate(140,403)"/>
<path d="M0 0 C1.32 0.66 2.64 1.32 4 2 C4 2.99 4 3.98 4 5 C2.02 5.66 0.04 6.32 -2 7 C-1.125 2.25 -1.125 2.25 0 0 Z " fill="#EDEDED" transform="translate(417,129)"/>
<path d="M0 0 C0.99 0.66 1.98 1.32 3 2 C3 2.66 3 3.32 3 4 C2.34 4 1.68 4 1 4 C1.66 5.32 2.32 6.64 3 8 C2.01 8 1.02 8 0 8 C-0.66 6.02 -1.32 4.04 -2 2 C-1.34 1.34 -0.68 0.68 0 0 Z " fill="#2A2A2A" transform="translate(203,896)"/>
<path d="M0 0 C0.99 0 1.98 0 3 0 C4.38671875 1.75 4.38671875 1.75 5.6875 4 C6.12449219 4.7425 6.56148437 5.485 7.01171875 6.25 C7.33785156 6.8275 7.66398438 7.405 8 8 C5 8 5 8 2.875 6.25 C1.03354564 4.04025476 0.39987019 2.79909134 0 0 Z " fill="#2D2D2D" transform="translate(752,695)"/>
<path d="M0 0 C2.62187494 1.04874998 3.79371361 1.64931313 5.25 4.125 C5.4975 4.74375 5.745 5.3625 6 6 C4.02 6 2.04 6 0 6 C0 4.02 0 2.04 0 0 Z " fill="#292929" transform="translate(475,559)"/>
<path d="M0 0 C3.465 1.98 3.465 1.98 7 4 C6.67 4.99 6.34 5.98 6 7 C2.535 5.02 2.535 5.02 -1 3 C-0.67 2.01 -0.34 1.02 0 0 Z " fill="#EBEBEB" transform="translate(856,168)"/>
<path d="M0 0 C2.0625 0.4375 2.0625 0.4375 4 1 C4 2.32 4 3.64 4 5 C2.68 5.33 1.36 5.66 0 6 C-0.38218767 4.34385343 -0.71395102 2.67542976 -1 1 C-0.67 0.67 -0.34 0.34 0 0 Z " fill="#F1F1F1" transform="translate(417,1065)"/>
<path d="M0 0 C0 3 0 3 -1 6 C-3.4375 7.75 -3.4375 7.75 -6 9 C-6.66 8.67 -7.32 8.34 -8 8 C-5.36 5.36 -2.72 2.72 0 0 Z " fill="#EBEBEB" transform="translate(964,941)"/>
<path d="M0 0 C3.875 4.75 3.875 4.75 5 7 C4.34 7.66 3.68 8.32 3 9 C0.9375 6.75 0.9375 6.75 -1 4 C-0.75 1.6875 -0.75 1.6875 0 0 Z " fill="#E7E7E7" transform="translate(827,924)"/>
<path d="M0 0 C2.01136276 2.55991624 3.62845496 5.04590299 5 8 C4.01 8.495 4.01 8.495 3 9 C1.68 7.68 0.36 6.36 -1 5 C-1.99 5.495 -1.99 5.495 -3 6 C-2.67 5.01 -2.34 4.02 -2 3 C-1.34 3 -0.68 3 0 3 C0 2.01 0 1.02 0 0 Z " fill="#313131" transform="translate(1027,341)"/>
<path d="M0 0 C1.65 0 3.3 0 5 0 C5.33 1.98 5.66 3.96 6 6 C5.01 6.495 5.01 6.495 4 7 C2.02 3.535 2.02 3.535 0 0 Z " fill="#2E2E2E" transform="translate(848,953)"/>
<path d="M0 0 C4 4.625 4 4.625 4 8 C2.35 6.68 0.7 5.36 -1 4 C-0.67 2.68 -0.34 1.36 0 0 Z " fill="#353535" transform="translate(750,945)"/>
<path d="M0 0 C0.99 0.33 1.98 0.66 3 1 C3 1.66 3 2.32 3 3 C2.34 3 1.68 3 1 3 C0.67 4.32 0.34 5.64 0 7 C-0.33 6.34 -0.66 5.68 -1 5 C-1.66 4.67 -2.32 4.34 -3 4 C-2.01 2.68 -1.02 1.36 0 0 Z " fill="#282828" transform="translate(747,943)"/>
<path d="M0 0 C0.66 0.33 1.32 0.66 2 1 C0.75 3.9375 0.75 3.9375 -1 7 C-2.32 7.33 -3.64 7.66 -5 8 C-3.35 5.36 -1.7 2.72 0 0 Z " fill="#ECECEC" transform="translate(1015,877)"/>
<path d="M0 0 C0.66 0.33 1.32 0.66 2 1 C2.75 3.9375 2.75 3.9375 3 7 C2.34 7.66 1.68 8.32 1 9 C0.34 8.34 -0.32 7.68 -1 7 C-1 6.01 -1 5.02 -1 4 C-0.34 4 0.32 4 1 4 C0.67 2.68 0.34 1.36 0 0 Z " fill="#292929" transform="translate(620,624)"/>
<path d="M0 0 C1.32 0.33 2.64 0.66 4 1 C4.33 2.65 4.66 4.3 5 6 C4.01 6 3.02 6 2 6 C0 3 0 3 0 0 Z " fill="#303030" transform="translate(544,522)"/>
<path d="M0 0 C0.99 0.99 1.98 1.98 3 3 C0.525 4.485 0.525 4.485 -2 6 C-2.33 5.01 -2.66 4.02 -3 3 C-2.01 2.01 -1.02 1.02 0 0 Z " fill="#F2F2F2" transform="translate(315,185)"/>
<path d="M0 0 C0.66 0.33 1.32 0.66 2 1 C0.68 2.32 -0.64 3.64 -2 5 C-1.67 5.66 -1.34 6.32 -1 7 C-2.32 6.67 -3.64 6.34 -5 6 C-5 5.01 -5 4.02 -5 3 C-2.625 1.25 -2.625 1.25 0 0 Z " fill="#303030" transform="translate(379,151)"/>
<path d="M0 0 C0 0.66 0 1.32 0 2 C-1.32 2 -2.64 2 -4 2 C-4 2.66 -4 3.32 -4 4 C-6.97 3.505 -6.97 3.505 -10 3 C-6.41600853 0.61067235 -4.26804999 0 0 0 Z " fill="#3F3F3F" transform="translate(479,115)"/>
<path d="M0 0 C1.65 0 3.3 0 5 0 C5.33 1.98 5.66 3.96 6 6 C5.01 6 4.02 6 3 6 C2.01 4.02 1.02 2.04 0 0 Z " fill="#EBEBEB" transform="translate(672,834)"/>
<path d="M0 0 C0.33 0.66 0.66 1.32 1 2 C1.66 2.33 2.32 2.66 3 3 C2.67 4.65 2.34 6.3 2 8 C0.68 7.34 -0.64 6.68 -2 6 C-2 5.34 -2 4.68 -2 4 C-1.34 4 -0.68 4 0 4 C0 2.68 0 1.36 0 0 Z " fill="#2D2D2D" transform="translate(669,693)"/>
<path d="M0 0 C0.66 0.33 1.32 0.66 2 1 C0.35 2.98 -1.3 4.96 -3 7 C-3.99 6.34 -4.98 5.68 -6 5 C-4.02 3.35 -2.04 1.7 0 0 Z " fill="#E6E6E6" transform="translate(909,991)"/>
<path d="M0 0 C3 1 3 1 4.1875 3.0625 C4.455625 3.701875 4.72375 4.34125 5 5 C4.01 5.495 4.01 5.495 3 6 C1.68 4.68 0.36 3.36 -1 2 C-0.67 1.34 -0.34 0.68 0 0 Z " fill="#EEEEEE" transform="translate(873,991)"/>
<path d="M0 0 C1.32 1.32 2.64 2.64 4 4 C3.01 5.485 3.01 5.485 2 7 C2 6.34 2 5.68 2 5 C1.34 5 0.68 5 0 5 C-0.5625 3.0625 -0.5625 3.0625 -1 1 C-0.67 0.67 -0.34 0.34 0 0 Z " fill="#303030" transform="translate(731,919)"/>
<path d="M0 0 C1.9375 0.8125 1.9375 0.8125 4 2 C4.33 2.99 4.66 3.98 5 5 C4.01 6.485 4.01 6.485 3 8 C0 2.25 0 2.25 0 0 Z " fill="#2B2B2B" transform="translate(681,850)"/>
<path d="M0 0 C0.33 0 0.66 0 1 0 C1.3125 2.25 1.3125 2.25 1 5 C-1.5 7.3125 -1.5 7.3125 -4 9 C-2.80100302 5.9168649 -1.52299523 2.93720508 0 0 Z " fill="#E0E0E0" transform="translate(1035,844)"/>
<path d="M0 0 C0.33 0.66 0.66 1.32 1 2 C0.06553465 4.03144641 -0.93224776 6.03533587 -2 8 C-2.66 7.67 -3.32 7.34 -4 7 C-3.43628586 3.73045798 -2.50037734 2.17424117 0 0 Z " fill="#333333" transform="translate(1046,822)"/>
<path d="M0 0 C0.99 0 1.98 0 3 0 C3.625 2.375 3.625 2.375 4 5 C3.34 5.66 2.68 6.32 2 7 C1.01 5.02 0.02 3.04 -1 1 C-0.67 0.67 -0.34 0.34 0 0 Z " fill="#303030" transform="translate(527,497)"/>
<path d="M0 0 C1.65 1.65 3.3 3.3 5 5 C4.67 5.66 4.34 6.32 4 7 C2.35 6.67 0.7 6.34 -1 6 C-0.67 4.02 -0.34 2.04 0 0 Z " fill="#3E3E3E" transform="translate(989,287)"/>
<path d="M0 0 C0.99 0.33 1.98 0.66 3 1 C1.515 2.485 1.515 2.485 0 4 C0.33 4.66 0.66 5.32 1 6 C0.01 6.33 -0.98 6.66 -2 7 C-2.66 6.34 -3.32 5.68 -4 5 C-3.34 5 -2.68 5 -2 5 C-1.34 3.35 -0.68 1.7 0 0 Z " fill="#323232" transform="translate(910,209)"/>
<path d="M0 0 C0 3 0 3 -1.3125 4.6875 C-3 6 -3 6 -6 6 C-4.75453595 2.26360784 -3.36595047 1.81243487 0 0 Z " fill="#313131" transform="translate(353,165)"/>
<path d="M0 0 C1.32 0.66 2.64 1.32 4 2 C3.01 2.495 3.01 2.495 2 3 C1.67 3.66 1.34 4.32 1 5 C-0.32 4.67 -1.64 4.34 -3 4 C-3 3.34 -3 2.68 -3 2 C-2.01 1.34 -1.02 0.68 0 0 Z " fill="#2F2F2F" transform="translate(360,161)"/>
</svg>
